Coordinates
version=1
nRows=10
nColumns=63
inDegrees=yes

Units are S.I. units (second, meters, Newtons, ...)
If the header above contains a line with 'inDegrees', this indicates whether rotational values are in degrees (yes) or radians (no).

endheader
time	pelvis_tilt	pelvis_list	pelvis_rotation	pelvis_tx	pelvis_ty	pelvis_tz	hip_flexion_r	hip_adduction_r	hip_rotation_r	knee_angle_r	knee_angle_r_beta	ankle_angle_r	subtalar_angle_r	mtp_angle_r	hip_flexion_l	hip_adduction_l	hip_rotation_l	knee_angle_l	knee_angle_l_beta	ankle_angle_l	subtalar_angle_l	mtp_angle_l	L5_S1_Flex_Ext	L5_S1_Lat_Bending	L5_S1_axial_rotation	L4_L5_Flex_Ext	L4_L5_Lat_Bending	L4_L5_axial_rotation	L3_L4_Flex_Ext	L3_L4_Lat_Bending	L3_L4_axial_rotation	L2_L3_Flex_Ext	L2_L3_Lat_Bending	L2_L3_axial_rotation	L1_L2_Flex_Ext	L1_L2_Lat_Bending	L1_L2_axial_rotation	L1_T12_Flex_Ext	L1_T12_Lat_Bending	L1_T12_axial_rotation	Abs_r3	Abs_r2	Abs_r1	Abs_t1	Abs_t2	neck_flexion	neck_bending	neck_rotation	arm_flex_r	arm_add_r	arm_rot_r	elbow_flex_r	pro_sup_r	wrist_flex_r	wrist_dev_r	arm_flex_l	arm_add_l	arm_rot_l	elbow_flex_l	pro_sup_l	wrist_flex_l	wrist_dev_l
      1.50847458	      3.72640305	     -3.23100052	     92.31901261	      0.19761367	      0.93656404	      0.62882541	      0.22860808	      0.05686087	     -5.69118439	      2.45017955	      0.04276370	     23.79660913	     11.32835257	      0.00000000	      2.55692487	      1.14088124	      4.78332255	      5.41524949	      0.09451393	     21.04408745	     -7.53685979	      0.00000000	      0.13826762	     -0.01860684	     -2.33211563	      0.25677679	     -0.02474710	     -2.47787286	      0.22715987	     -0.04524068	     -2.47787286	      0.15802606	     -0.04524068	     -2.04060118	      0.12839531	     -0.03794308	     -1.89484395	      0.07900612	     -0.02882200	     -1.74908672	      0.98763177	     -0.21048434	    -12.97052750	      0.00000000	      0.00000000	     12.71426910	      1.26423144	     13.92128225	     12.79082259	    -10.19397049	     77.71314140	     23.84051260	     48.21979646	     -0.04945003	     -2.88519541	     -6.48129418	    -13.42653496	     24.84400653	     36.51966344	     82.59443781	     -8.19586406	      2.22748587
      1.52542373	      3.78181579	     -3.16374210	     92.37383918	      0.19790115	      0.93657026	      0.62739836	     -0.00911597	      0.14888059	     -5.49997153	      2.33621938	      0.04077472	     23.83102282	     11.00176969	      0.00000000	      2.28052798	      1.08673658	      5.58834333	      5.14072594	      0.08972259	     20.80233773	     -8.53480805	      0.00000000	      0.14194290	     -0.01761541	     -2.39196224	      0.26360217	     -0.02342849	     -2.54145988	      0.23319800	     -0.04283010	     -2.54145988	      0.16222654	     -0.04283010	     -2.09296696	      0.13180818	     -0.03592134	     -1.94346932	      0.08110617	     -0.02728627	     -1.79397168	      1.01388396	     -0.19926902	    -13.30337639	      0.00000000	      0.00000000	     12.11270663	      1.38847523	     14.76062922	     12.97179910	    -10.14032561	     79.05079766	     23.81779767	     47.62232025	     -0.21905975	     -2.81665119	     -6.93601229	    -13.34466562	     24.22061164	     36.63078585	     82.76143519	     -8.30015792	      1.89556931
      1.54237288	      3.76359272	     -3.04695872	     92.41204478	      0.19836873	      0.93670693	      0.62618165	     -0.30703742	      0.18309942	     -5.11882778	      2.18766248	      0.03818191	     23.72647925	     10.33762493	      0.00000000	      2.06241404	      0.99121937	      4.10837663	      5.08995833	      0.08883653	     21.39816516	     -6.18866055	      0.00000000	      0.13400348	     -0.02878268	     -2.40335799	      0.24885786	     -0.03828096	     -2.55356787	      0.22015432	     -0.06998220	     -2.55356787	      0.15315258	     -0.06998220	     -2.10293824	      0.12443563	     -0.05869364	     -1.95272837	      0.07656959	     -0.04458437	     -1.80251849	      0.95717345	     -0.32559540	    -13.36675614	      0.00000000	      0.00000000	     11.66837127	      1.53147844	     15.35429349	     12.99896071	    -10.12815636	     79.59563286	     23.91574945	     47.60398385	     -0.33778588	     -2.62763328	     -7.06544447	    -13.54900224	     24.86537360	     36.69148980	     81.69836036	     -8.90711316	      1.26459883
      1.55932203	      3.74770221	     -2.96735412	     92.51406420	      0.19876612	      0.93670955	      0.62506610	     -0.54912108	      0.21663531	     -4.64286960	      2.08395934	      0.03637195	     23.53755660	      9.38937013	      0.00000000	      1.76169008	      1.06185173	      6.35481245	      4.75109050	      0.08292217	     20.59976494	     -9.31309790	      0.00000000	      0.13779443	     -0.04412854	     -2.47671617	      0.25589803	     -0.05869096	     -2.63151093	      0.22638247	     -0.10729414	     -2.63151093	      0.15748525	     -0.10729414	     -2.16712665	      0.12795591	     -0.08998692	     -2.01233189	      0.07873574	     -0.06835511	     -1.85753713	      0.98425182	     -0.49919089	    -13.77475233	      0.00000000	      0.00000000	     11.25044564	      1.76120527	     15.98233242	     14.17023252	     -9.83215444	     86.52965994	     23.44309889	     41.49060958	     -0.19710589	     -3.91236985	     -7.79530467	    -13.30613415	     22.88149648	     37.06947608	     83.06193475	     -8.76108881	      1.15430034
      1.57627119	      3.71637407	     -2.81981250	     92.50843380	      0.19917360	      0.93688601	      0.62421492	     -0.76985871	      0.18238443	     -5.50624902	      2.13656407	      0.03729008	     23.54984292	     10.33823409	      0.00000000	      1.53422794	      1.02057307	      5.50502263	      4.70444323	      0.08210802	     20.93867682	     -8.06949785	      0.00000000	      0.12758737	     -0.06084459	     -2.42776625	      0.23694250	     -0.08092330	     -2.57950164	      0.20961329	     -0.14793754	     -2.57950164	      0.14581960	     -0.14793754	     -2.12429547	      0.11847763	     -0.12407429	     -1.97256008	      0.07290342	     -0.09424827	     -1.82082469	      0.91134382	     -0.68828617	    -13.50250754	      0.00000000	      0.00000000	     11.04658891	      1.80906324	     15.83302455	     13.98026250	     -9.92617539	     85.99260130	     23.74058483	     41.95208592	     -0.49111885	     -3.62187276	     -7.87228821	    -13.30743945	     22.58368361	     37.21887491	     83.43876307	     -8.88839694	      1.19198199
      1.59322034	      3.68504090	     -2.67224499	     92.47611105	      0.19965394	      0.93716856	      0.62365926	     -0.98758119	      0.16382376	     -5.84422717	      2.13009010	      0.03717709	     23.38053960	     10.59160292	      0.00000000	      1.37520449	      0.96492036	      4.30537741	      4.76815659	      0.08322003	     21.27038297	     -6.50394224	      0.00000000	      0.11821664	     -0.07695520	     -2.37607753	      0.21954011	     -0.10235042	     -2.52458238	      0.19421811	     -0.18710888	     -2.52458238	      0.13510979	     -0.18710888	     -2.07906784	      0.10977597	     -0.15692705	     -1.93056300	      0.06754899	     -0.11920361	     -1.78205815	      0.84440960	     -0.87053266	    -13.21503042	      0.00000000	      0.00000000	     10.82794160	      1.74287879	     15.56668555	     13.85690817	     -9.90740567	     85.70894066	     23.82608080	     42.23184881	     -0.73189001	     -3.45116803	     -7.85017019	    -13.31284322	     22.41320498	     37.29016073	     83.62251717	     -9.06805239	      1.30287101
      1.61016949	      3.58862275	     -2.52326811	     92.46936561	      0.20003285	      0.93738191	      0.62287992	     -1.37118612	      0.19357964	     -1.98243079	      1.76086479	      0.03073289	     22.32998461	      4.91466261	      0.00000000	      0.99270641	      1.08212628	      5.70722029	      4.41314731	      0.07702395	     20.51158264	     -8.59882786	      0.00000000	      0.11931655	     -0.10235363	     -2.41538665	      0.22158276	     -0.13613033	     -2.56634831	      0.19602515	     -0.24886263	     -2.56634831	      0.13636688	     -0.24886263	     -2.11346332	      0.11079734	     -0.20871953	     -1.96250165	      0.06817747	     -0.15854578	     -1.81153999	      0.85226615	     -1.15784479	    -13.43365592	      0.00000000	      0.00000000	     10.49645924	      1.72658133	     15.42227757	     15.57668680	     -9.30954787	     96.38490854	     23.14244300	     31.85469698	     -0.53991313	     -5.96378069	     -8.32599574	    -13.19964718	     21.04274001	     37.65094126	     84.59549459	     -9.02179216	      1.62776839
      1.62711864	      3.58644286	     -2.39685417	     92.52601212	      0.20003531	      0.93767151	      0.62258938	     -1.52454614	      0.17832276	     -2.88279437	      1.77583856	      0.03099423	     22.29467885	      5.82262426	      0.00000000	      0.92628396	      0.97902431	      3.52748344	      4.64113521	      0.08100309	     21.09539457	     -5.46788730	      0.00000000	      0.11087357	     -0.10925951	     -2.38279018	      0.20590331	     -0.14531515	     -2.53171457	      0.18215419	     -0.26565358	     -2.53171457	      0.12671740	     -0.26565358	     -2.08494141	      0.10295720	     -0.22280200	     -1.93601702	      0.06335316	     -0.16924298	     -1.78709264	      0.79195883	     -1.23596545	    -13.25236416	      0.00000000	      0.00000000	     10.06120122	      1.41300420	     14.98348378	     15.25951312	     -9.47133462	     94.67994299	     23.44114602	     33.19771899	     -1.25002130	     -5.66511230	     -8.11376920	    -13.33592247	     21.75748944	     37.62582887	     83.87678472	     -9.41110075	      1.71669839
      1.64406780	      3.60949045	     -2.33185036	     92.42927776	      0.20023883	      0.93777639	      0.62227630	     -1.61251670	      0.22040309	     -2.12380868	      1.73187134	      0.03022686	     22.01190578	      4.73777640	      0.00000000	      0.71963990	      1.00259668	      5.19082828	      4.47061498	      0.07802695	     20.15600523	     -8.07814327	      0.00000000	      0.11356141	     -0.11353343	     -2.38119724	      0.21089489	     -0.15099946	     -2.53002207	      0.18657003	     -0.27604517	     -2.53002207	      0.12978933	     -0.27604517	     -2.08354759	      0.10545312	     -0.23151736	     -1.93472276	      0.06488899	     -0.17586328	     -1.78589793	      0.81115776	     -1.28431281	    -13.24350471	      0.00000000	      0.00000000	      9.50117077	      1.06791988	     14.68907632	     15.70429103	     -9.18521712	     97.70533621	     23.10059416	     30.08328428	     -1.34651944	     -6.50822203	     -8.46898201	    -13.08268977	     20.23298418	     37.95874414	     85.32753215	     -8.99609263	      2.49541350
      1.66101695	      3.66041314	     -2.26339345	     92.31121434	      0.20040938	      0.93799109	      0.62218850	     -1.64160877	      0.25858479	     -2.77407568	      1.77621739	      0.03100084	     22.05607964	      5.71322470	      0.00000000	      0.68361483	      0.87616075	      3.57373043	      4.65329264	      0.08121528	     20.48668145	     -5.95502220	      0.00000000	      0.10692987	     -0.11072184	     -2.34025549	      0.19857945	     -0.14726004	     -2.48652146	      0.17567508	     -0.26920907	     -2.48652146	      0.12221014	     -0.26920907	     -2.04772355	      0.09929507	     -0.22578397	     -1.90145759	      0.06109973	     -0.17150813	     -1.75519162	      0.76378934	     -1.25250756	    -13.01579896	      0.00000000	      0.00000000	      8.92894098	      0.94398673	     14.64125900	     15.41946491	     -9.25208369	     96.07440485	     23.13724773	     31.43734668	     -1.90854487	     -6.35449332	     -8.35240097	    -13.08459423	     20.42816901	     37.92138540	     85.17101598	     -9.07347550	      2.77329194
